<?xml version="1.0" encoding="UTF-8"?>
<!DOCTYPE svg PUBLIC "-//W3C//DTD SVG 1.1//EN" "http://www.w3.org/Graphics/SVG/1.1/DTD/svg11.dtd">
<!-- Creator: CorelDRAW 2017 -->
<svg xmlns="http://www.w3.org/2000/svg" xml:space="preserve" width="8.5in" height="11in" version="1.1" style="shape-rendering:geometricPrecision; text-rendering:geometricPrecision; image-rendering:optimizeQuality; fill-rule:evenodd; clip-rule:evenodd"
viewBox="0 0 8500 11000"
 xmlns:xlink="http://www.w3.org/1999/xlink">
 <defs>
  <style type="text/css">
   <![CDATA[
    .fil3 {fill:#34A853;fill-opacity:0.800000}
    .fil1 {fill:#4285F4;fill-opacity:0.800000}
    .fil0 {fill:#EA4335;fill-opacity:0.800000}
    .fil2 {fill:#FBBC05;fill-opacity:0.800000}
   ]]>
  </style>
 </defs>
 <g id="Layer_x0020_1">
  <metadata id="CorelCorpID_0Corel-Layer"/>
  <g id="_2253767435952">
   <path class="fil0" d="M3442 4743c766,-503 1809,-627 2790,-241 974,382 1653,1173 1882,2055 -766,503 -1809,627 -2790,241 -974,-382 -1653,-1173 -1882,-2055z"/>
   <path class="fil1" d="M2730 9004c-514,-759 -651,-1800 -278,-2787 369,-979 1151,-1669 2030,-1909 514,759 651,1800 278,2787 -369,979 -1151,1669 -2030,1909z"/>
   <path class="fil2" d="M5740 1113c514,759 651,1800 278,2787 -369,979 -1151,1669 -2030,1909 -514,-759 -651,-1800 -278,-2787 369,-979 1151,-1669 2030,-1909z"/>
   <path class="fil3" d="M4971 5285c-244,-883 -946,-1664 -1938,-2022 -984,-355 -2016,-209 -2770,304 244,883 946,1664 1938,2022 984,355 2016,209 2770,-304z"/>
   <path class="fil2" d="M4482 5809c514,-759 651,-1800 278,-2787 -369,-979 -1151,-1669 -2030,-1909 -514,759 -651,1800 -278,2787 369,979 1151,1669 2030,1909z"/>
   <path class="fil3" d="M4953 4709c-766,-503 -1809,-627 -2790,-241 -974,382 -1653,1173 -1882,2055 766,503 1809,627 2790,241 974,-382 1653,-1173 1882,-2055z"/>
   <path class="fil1" d="M5706 8970c514,-759 651,-1800 278,-2787 -369,-979 -1151,-1669 -2030,-1909 -514,759 -651,1800 -278,2787 369,979 1151,1669 2030,1909z"/>
   <path class="fil0" d="M3458 5319c244,-883 946,-1664 1938,-2022 984,-355 2016,-209 2770,304 -244,883 -946,1664 -1938,2022 -984,355 -2016,209 -2770,-304z"/>
  </g>
 </g>
</svg>
