<svg xmlns="http://www.w3.org/2000/svg" width="607.542" height="397.849" viewBox="0 0 607.542 397.849">
  <defs>
    <style>
      .cls-1 {
        fill: #ea4335;
      }

      .cls-2 {
        fill: #4285f4;
      }

      .cls-3 {
        fill: #fbbc05;
      }

      .cls-4 {
        fill: #34a853;
      }
    </style>
  </defs>
  <g id="Group_4" data-name="Group 4" transform="translate(-316.774 -234.864)">
    <g id="Group_2" data-name="Group 2">
      <path id="Path_2" data-name="Path 2" class="cls-1" d="M40,0C62.091,0,80,15.67,80,35V265c0,19.33-17.909,35-40,35S0,284.33,0,265V35C0,15.67,17.909,0,40,0Z" transform="translate(920.589 428.422) rotate(130)"/>
      <rect id="Rectangle_7" data-name="Rectangle 7" class="cls-2" width="80" height="303" rx="40" transform="translate(872.892 376.657) rotate(50)"/>
    </g>
    <g id="Group_3" data-name="Group 3" transform="translate(5)">
      <path id="Path_3" data-name="Path 3" class="cls-3" d="M39.83-.063C61.792-.1,79.564,15.734,79.525,35.3l-.468,232.793c-.039,19.565-17.875,35.453-39.837,35.488s-39.734-15.8-39.7-35.362L-.007,35.426C.032,15.861,17.868-.028,39.83-.063Z" transform="translate(545.461 235.268) rotate(50)"/>
      <path id="Path_1" data-name="Path 1" class="cls-4" d="M39.758.063C61.72.1,79.556,15.829,79.6,35.2l.468,230.491c.039,19.371-17.733,35.047-39.7,35.012S.57,284.937.53,265.566L.063,35.075C.023,15.7,17.8.028,39.758.063Z" transform="translate(593.589 571.422) rotate(130)"/>
    </g>
  </g>
</svg>
